<?xml version="1.0" encoding="UTF-8"?>
<!DOCTYPE svg PUBLIC "-//W3C//DTD SVG 1.1//EN" "http://www.w3.org/Graphics/SVG/1.1/DTD/svg11.dtd">
<!-- Creator: CorelDRAW 2021 (64-Bit) -->
<svg xmlns="http://www.w3.org/2000/svg" xml:space="preserve" width="128px" height="77px" version="1.1" style="shape-rendering:geometricPrecision; text-rendering:geometricPrecision; image-rendering:optimizeQuality; fill-rule:evenodd; clip-rule:evenodd"
viewBox="0 0 128 76.8"
 xmlns:xlink="http://www.w3.org/1999/xlink"
 xmlns:xodm="http://www.corel.com/coreldraw/odm/2003">
 <defs>
  <style type="text/css">
   <![CDATA[
    .fil2 {fill:#E52D2B}
    .fil1 {fill:#FFCD00}
    .fil0 {fill:#E52D2B;fill-rule:nonzero}
   ]]>
  </style>
 </defs>
 <g id="Слой_x0020_1">
  <metadata id="CorelCorpID_0Corel-Layer"/>
  <g id="_1">
   <path class="fil0" d="M7.39 40.4c-0.95,0 -1.7,0.38 -2.24,1.13 -0.54,0.75 -0.81,1.8 -0.81,3.13 0,1.38 0.27,2.45 0.8,3.21 0.53,0.76 1.29,1.14 2.27,1.14 0.96,0 1.7,-0.38 2.2,-1.14 0.5,-0.76 0.76,-1.87 0.76,-3.34 0,-1.29 -0.27,-2.3 -0.79,-3.03 -0.53,-0.74 -1.26,-1.1 -2.19,-1.1zm0.06 -3.81c2.3,0 4.16,0.75 5.57,2.25 1.41,1.5 2.12,3.47 2.12,5.91 0,2.42 -0.71,4.38 -2.13,5.87 -1.42,1.5 -3.28,2.24 -5.6,2.24 -2.36,0 -4.26,-0.74 -5.7,-2.23 -1.44,-1.48 -2.16,-3.45 -2.16,-5.9 0,-2.45 0.72,-4.42 2.16,-5.91 1.44,-1.48 3.35,-2.23 5.74,-2.23z"/>
   <path class="fil0" d="M27.05 47.87c-0.41,0.6 -1.06,1.31 -2.39,1.25 -0.86,-0.05 -1.59,-0.4 -2.11,-1.2 -0.54,-0.81 -0.81,-1.87 -0.81,-3.17 0,-1.36 0.27,-2.43 0.81,-3.19 0.27,-0.4 0.61,-0.69 1.01,-0.87 0.18,-0.09 0.36,-0.17 0.56,-0.2 0.21,-0.06 0.43,-0.08 0.68,-0.08 0.49,0 0.92,0.1 1.3,0.28 0.36,0.2 0.66,0.45 0.93,0.81l0 0.02c0.15,0.18 0.25,0.38 0.34,0.62 0.18,0.41 0.33,0.92 0.38,1.48 0.04,0.28 0.23,2.86 -0.7,4.25zm3.76 2.33l-0.14 -0.16c0.57,-0.56 1.02,-1.32 1.36,-2.28 0.33,-0.98 0.49,-2.03 0.49,-3.16 0,-2.32 -0.72,-4.22 -2.16,-5.74 -1.06,-1.13 -2.36,-1.83 -3.83,-2.12 -0.52,-0.09 -1.06,-0.15 -1.62,-0.15 -0.58,0 -1.13,0.06 -1.66,0.15 -1.58,0.29 -2.91,0.99 -4.03,2.15 -1.11,1.16 -1.8,2.54 -2.08,4.17 -0.09,0.55 -0.15,1.11 -0.15,1.71 0,0.3 0.02,0.59 0.04,0.88 0.14,2.02 0.85,3.67 2.07,4.97 1.38,1.49 3.22,2.25 5.48,2.25l0.13 0c1.46,-0.02 2.66,-0.35 3.6,-0.94l2.02 2.02 2.09 -2.13 -1.61 -1.62z"/>
   <polygon class="fil0" points="47.51,37 47.51,40.99 43.19,40.99 43.19,52.49 38.49,52.49 38.49,40.99 34.19,40.99 34.19,37 "/>
   <polygon class="fil0" points="62.35,37 62.35,40.77 54.26,40.77 54.26,42.7 61.6,42.7 61.6,46.29 54.26,46.29 54.26,48.56 62.57,48.56 62.57,52.49 49.61,52.49 49.61,37 "/>
   <path class="fil0" d="M69.74 40.81l0 3.29 2.27 0c1.29,0 1.94,-0.55 1.94,-1.64 0,-1.1 -0.68,-1.65 -2.03,-1.65l-2.18 0zm-4.68 -3.81l6.69 0c4.48,0 6.71,1.84 6.71,5.51 0,1.71 -0.52,3 -1.58,3.88 -1.06,0.88 -2.46,1.32 -4.2,1.32l-2.94 0 0 4.78 -4.68 0 0 -15.49z"/>
   <path class="fil0" d="M86.69 46.97l-0.82 -2.66c-0.19,-0.62 -0.38,-1.4 -0.58,-2.35 -0.23,0.93 -0.45,1.72 -0.65,2.38 -0.22,0.71 -0.5,1.58 -0.84,2.63l2.89 0zm0.91 -9.97l5.65 15.49 -4.77 0 -0.75 -2.19 -4.95 0 -0.75 2.19 -4.78 0 5.68 -15.49 4.67 0z"/>
   <path class="fil0" d="M23 68.39l-0.83 -2.67c-0.19,-0.62 -0.38,-1.41 -0.59,-2.35 -0.23,0.93 -0.45,1.72 -0.65,2.38 -0.22,0.71 -0.5,1.59 -0.85,2.64l2.92 0zm0.92 -10l5.71 15.54 -4.82 0 -0.76 -2.21 -4.99 0 -0.77 2.21 -4.82 0 5.74 -15.54 4.71 0z"/>
   <path class="fil0" d="M45.11 58.39l-4.77 15.54 -5.36 0 -4.65 -15.54 4.82 0 0.79 2.77c0.93,3.28 1.52,5.95 1.76,8.01 0.28,-1.96 0.87,-4.62 1.79,-7.98l0.76 -2.8 4.86 0z"/>
   <path class="fil0" d="M55.35 68.39l-0.83 -2.67c-0.19,-0.62 -0.39,-1.41 -0.59,-2.35 -0.23,0.93 -0.45,1.72 -0.65,2.38 -0.22,0.71 -0.51,1.59 -0.85,2.64l2.92 0zm0.91 -10l5.72 15.54 -4.82 0 -0.77 -2.21 -4.99 0 -0.76 2.21 -4.82 0 5.73 -15.54 4.71 0z"/>
   <path class="fil0" d="M76.35 63.11l-4.47 0c-0.01,-0.47 -0.2,-0.83 -0.55,-1.1 -0.34,-0.26 -0.82,-0.39 -1.43,-0.39 -1.05,0 -1.57,0.32 -1.57,0.96 0,0.18 0.08,0.34 0.26,0.5 0.17,0.16 0.41,0.3 0.73,0.41 0.31,0.11 0.6,0.2 0.86,0.27 0.26,0.07 0.56,0.14 0.88,0.21 0.33,0.06 0.52,0.1 0.58,0.12 0.61,0.16 1.13,0.31 1.57,0.46 0.44,0.14 0.91,0.35 1.42,0.62 0.5,0.27 0.92,0.56 1.23,0.89 0.31,0.33 0.58,0.74 0.79,1.24 0.22,0.51 0.33,1.07 0.33,1.7 0,1.61 -0.61,2.9 -1.83,3.85 -1.22,0.95 -2.87,1.43 -4.95,1.43 -2.17,0 -3.87,-0.5 -5.12,-1.5 -1.25,-0.99 -1.89,-2.36 -1.92,-4.09l4.77 0c0.08,1.34 0.88,2.01 2.42,2.01 0.6,0 1.07,-0.12 1.42,-0.35 0.35,-0.23 0.52,-0.55 0.52,-0.94 0,-0.25 -0.1,-0.46 -0.3,-0.63 -0.19,-0.16 -0.55,-0.34 -1.09,-0.53 -0.54,-0.18 -1.18,-0.38 -1.91,-0.6 -0.73,-0.21 -1.19,-0.35 -1.38,-0.42 -0.63,-0.22 -1.14,-0.43 -1.55,-0.63 -0.41,-0.21 -0.8,-0.47 -1.18,-0.8 -0.38,-0.33 -0.66,-0.73 -0.84,-1.2 -0.18,-0.47 -0.27,-1.03 -0.27,-1.67 0,-1.45 0.58,-2.63 1.73,-3.52 1.16,-0.9 2.67,-1.35 4.55,-1.35 1.97,0 3.51,0.44 4.61,1.32 1.1,0.88 1.66,2.13 1.69,3.73z"/>
   <polygon class="fil0" points="11.21,69.89 11.21,73.95 -0.45,73.95 -0.45,58.42 4.32,58.42 4.32,69.89 "/>
   <polygon class="fil0" points="93.25,58.42 93.25,73.95 88.5,73.95 88.5,67.82 84.01,67.82 84.01,73.95 79.23,73.95 79.23,58.42 84.01,58.42 84.01,63.63 88.5,63.63 88.5,58.42 "/>
   <path class="fil1" d="M91.32 3.53c19.53,0 35.37,15.83 35.37,35.37 0,17.92 -13.34,32.74 -30.64,35.05l0 -4.71c14.72,-2.27 25.98,-14.99 25.98,-30.34 0,-16.97 -13.75,-30.71 -30.71,-30.71 -15.36,0 -28.09,11.28 -30.35,26.01l-4.71 0c2.3,-17.32 17.12,-30.67 35.06,-30.67z"/>
   <path class="fil2" d="M91.32 11.41c15.16,0 27.46,12.31 27.46,27.49 0,13.56 -9.82,24.82 -22.73,27.07l0 -4.75c10.33,-2.18 18.09,-11.34 18.09,-22.32 0,-12.61 -10.22,-22.82 -22.82,-22.82 -10.99,0 -20.17,7.77 -22.33,18.12l-4.72 0c2.22,-12.94 13.49,-22.79 27.05,-22.79z"/>
   <path class="fil1" d="M91.32 19.5c10.71,0 19.39,8.69 19.39,19.4 0,9.07 -6.24,16.69 -14.66,18.8l0 -4.85c5.82,-1.97 10,-7.47 10,-13.95 0,-8.14 -6.59,-14.74 -14.73,-14.74 -6.49,0 -12,4.2 -13.97,10.04l-4.85 0c2.1,-8.44 9.73,-14.7 18.82,-14.7z"/>
  </g>
 </g>
</svg>
